<svg width="1015" height="340" viewBox="0 0 1015 340" fill="none" xmlns="http://www.w3.org/2000/svg">
<path fill-rule="evenodd" clip-rule="evenodd" d="M952.39 0H61.99C8.85 0 0 18.4 0 62.16V278.23C0 321.96 18.2 340 61.93 340H952.4C996.16 340 1015 321.93 1015 278.17V62.16C1015 18.4 996.15 0 952.39 0Z" fill="black"/>
<path fill-rule="evenodd" clip-rule="evenodd" d="M264.63 211.64C259.52 222.97 257.07 228.03 250.49 238.04C241.3 252.02 228.36 269.43 212.32 269.58C198.07 269.71 194.41 260.3 175.07 260.41C155.73 260.52 151.69 269.74 137.43 269.61C121.39 269.46 109.13 253.74 99.9401 239.76C74.2601 200.66 71.5701 154.78 87.4101 130.39C98.6701 113.06 116.42 102.91 133.12 102.91C150.12 102.91 160.81 112.23 174.86 112.23C188.49 112.23 196.8 102.89 216.46 102.89C231.32 102.89 247.06 110.98 258.27 124.97C221.53 145.12 227.5 197.61 264.63 211.64Z" fill="white"/>
<path fill-rule="evenodd" clip-rule="evenodd" d="M201.55 87.29C208.69 78.13 214.11 65.18 212.15 51.95C200.49 52.75 186.84 60.1699 178.87 69.8499C171.64 78.6299 165.67 91.66 168 104.32C180.73 104.71 193.9 97.11 201.55 87.29Z" fill="white"/>
<path d="M357.914 135H367.172L346.82 78.6328H337.367L317.016 135H326.117L331.273 119.766H352.758L357.914 135ZM341.898 88.0078H342.133L350.531 112.734H333.5L341.898 88.0078Z" fill="white"/>
<path d="M404.086 93.9062H395.258L384.945 126.758H384.789L374.477 93.9062H365.492L380.297 135H389.359L404.086 93.9062Z" fill="white"/>
<path d="M422.445 129.023C417.914 129.023 414.945 126.68 414.945 123.086C414.945 119.57 417.797 117.344 422.836 116.992L432.953 116.367V119.609C432.953 124.961 428.344 129.023 422.445 129.023ZM420.102 135.703C425.492 135.703 430.688 132.812 433.07 128.242H433.266V135H441.352V106.68C441.352 98.4375 434.984 93.1641 425.023 93.1641C414.867 93.1641 408.539 98.6328 408.07 106.055H416.039C416.781 102.383 419.828 100.039 424.711 100.039C429.867 100.039 432.953 102.773 432.953 107.344V110.508L421.703 111.172C411.938 111.719 406.43 116.133 406.43 123.32C406.43 130.703 412.055 135.703 420.102 135.703Z" fill="white"/>
<path d="M449.828 135H458.266V93.9062H449.828V135ZM454.047 87.8906C456.781 87.8906 458.969 85.7422 458.969 83.0859C458.969 80.3906 456.781 78.2422 454.047 78.2422C451.352 78.2422 449.164 80.3906 449.164 83.0859C449.164 85.7422 451.352 87.8906 454.047 87.8906Z" fill="white"/>
<path d="M467.211 135H475.648V78.6328H467.211V135Z" fill="white"/>
<path d="M498.695 129.023C494.164 129.023 491.195 126.68 491.195 123.086C491.195 119.57 494.047 117.344 499.086 116.992L509.203 116.367V119.609C509.203 124.961 504.594 129.023 498.695 129.023ZM496.352 135.703C501.742 135.703 506.938 132.812 509.32 128.242H509.516V135H517.602V106.68C517.602 98.4375 511.234 93.1641 501.273 93.1641C491.117 93.1641 484.789 98.6328 484.32 106.055H492.289C493.031 102.383 496.078 100.039 500.961 100.039C506.117 100.039 509.203 102.773 509.203 107.344V110.508L497.953 111.172C488.188 111.719 482.68 116.133 482.68 123.32C482.68 130.703 488.305 135.703 496.352 135.703Z" fill="white"/>
<path d="M547.68 135.703C558.109 135.703 564.828 127.5 564.828 114.453C564.828 101.445 558.07 93.2422 547.719 93.2422C541.898 93.2422 537.211 96.1328 534.75 100.898H534.555V78.6328H526.117V135H534.32V128.008H534.477C537.016 132.773 541.664 135.703 547.68 135.703ZM545.414 100.352C552.055 100.352 556.156 105.82 556.156 114.453C556.156 123.164 552.055 128.555 545.414 128.555C539.008 128.555 534.516 123.008 534.516 114.453C534.516 105.977 539.008 100.352 545.414 100.352Z" fill="white"/>
<path d="M571.742 135H580.18V78.6328H571.742V135Z" fill="white"/>
<path d="M606.039 99.9609C611.938 99.9609 615.922 104.375 616.117 110.664H595.57C596 104.453 600.141 99.9609 606.039 99.9609ZM616.078 122.93C614.945 126.523 611.391 128.945 606.586 128.945C599.828 128.945 595.531 124.219 595.531 117.07V116.562H624.555V113.672C624.555 101.211 617.445 93.1641 606.039 93.1641C594.438 93.1641 587.016 101.758 587.016 114.648C587.016 127.617 594.32 135.781 606.391 135.781C615.805 135.781 622.914 130.43 624.086 122.93H616.078Z" fill="white"/>
<path d="M665.023 135.781C676.781 135.781 684.516 127.695 684.516 114.453C684.516 101.25 676.742 93.1641 665.023 93.1641C653.305 93.1641 645.531 101.25 645.531 114.453C645.531 127.695 653.266 135.781 665.023 135.781ZM665.023 128.828C658.422 128.828 654.125 123.594 654.125 114.453C654.125 105.352 658.422 100.117 665.023 100.117C671.625 100.117 675.922 105.352 675.922 114.453C675.922 123.594 671.664 128.828 665.023 128.828Z" fill="white"/>
<path d="M691.039 135H699.477V111.055C699.477 104.688 703.305 100.469 709.242 100.469C715.102 100.469 717.992 103.867 717.992 110.039V135H726.469V108.398C726.469 98.9844 721.273 93.2031 712.211 93.2031C705.883 93.2031 701.508 96.0938 699.281 100.781H699.086V93.9062H691.039V135Z" fill="white"/>
<path d="M753.344 84.1797V93.9062H747.367V100.586H753.344V124.18C753.344 132.109 756.586 135.273 764.906 135.273C766.781 135.273 768.656 135.117 769.594 134.883V128.203C769.047 128.32 767.68 128.398 766.82 128.398C763.383 128.398 761.82 126.797 761.82 123.242V100.586H769.633V93.9062H761.82V84.1797H753.344Z" fill="white"/>
<path d="M776.898 135H785.336V111.25C785.336 104.766 789.164 100.469 795.414 100.469C801.352 100.469 804.398 104.102 804.398 110.156V135H812.875V108.516C812.875 99.2188 807.484 93.2031 798.461 93.2031C792.211 93.2031 787.719 95.9766 785.453 100.781H785.258V78.6328H776.898V135Z" fill="white"/>
<path d="M838.227 99.9609C844.125 99.9609 848.109 104.375 848.305 110.664H827.758C828.188 104.453 832.328 99.9609 838.227 99.9609ZM848.266 122.93C847.133 126.523 843.578 128.945 838.773 128.945C832.016 128.945 827.719 124.219 827.719 117.07V116.562H856.742V113.672C856.742 101.211 849.633 93.1641 838.227 93.1641C826.625 93.1641 819.203 101.758 819.203 114.648C819.203 127.617 826.508 135.781 838.578 135.781C847.992 135.781 855.102 130.43 856.273 122.93H848.266Z" fill="white"/>
<path d="M384.418 267.458H401.263L364.232 165.693H347.031L310 267.458H326.561L335.943 239.954H375.036L384.418 267.458ZM355.276 182.618H355.703L370.984 227.26H339.995L355.276 182.618Z" fill="white"/>
<path d="M449.521 192.068C438.718 192.068 430.117 197.499 425.71 206.032H425.426V193.267H410.571V292H425.924V255.257H426.279C430.544 263.509 439.073 268.727 449.806 268.727C468.57 268.727 481.009 253.847 481.009 230.363C481.009 206.878 468.499 192.068 449.521 192.068ZM445.47 255.821C433.671 255.821 425.853 245.807 425.853 230.363C425.853 215.059 433.742 204.904 445.47 204.904C457.624 204.904 465.229 214.847 465.229 230.363C465.229 245.948 457.624 255.821 445.47 255.821Z" fill="white"/>
<path d="M531.683 192.068C520.88 192.068 512.279 197.499 507.872 206.032H507.588V193.267H492.733V292H508.086V255.257H508.441C512.706 263.509 521.235 268.727 531.968 268.727C550.732 268.727 563.171 253.847 563.171 230.363C563.171 206.878 550.661 192.068 531.683 192.068ZM527.632 255.821C515.833 255.821 508.015 245.807 508.015 230.363C508.015 215.059 515.904 204.904 527.632 204.904C539.786 204.904 547.391 214.847 547.391 230.363C547.391 245.948 539.786 255.821 527.632 255.821Z" fill="white"/>
<path d="M601.617 239.107C602.612 257.514 617.964 269.15 640.709 269.15C665.018 269.15 680.299 257.232 680.299 238.191C680.299 223.31 671.557 214.918 650.518 209.981L639.217 207.231C625.996 203.987 620.594 199.755 620.594 192.562C620.594 183.535 629.053 177.329 641.42 177.329C653.787 177.329 662.246 183.464 663.17 193.62H678.664C678.167 176.06 663.312 164 641.633 164C619.741 164 604.318 176.06 604.318 193.62C604.318 207.795 613.06 216.54 631.896 221.053L645.187 224.227C658.479 227.471 664.094 232.196 664.094 240.095C664.094 249.192 654.783 255.821 641.846 255.821C628.342 255.821 618.462 249.192 617.325 239.107H601.617Z" fill="white"/>
<path d="M697.07 175.707V193.267H686.195V205.327H697.07V247.923C697.07 262.239 702.97 267.952 718.109 267.952C721.521 267.952 724.932 267.669 726.638 267.246V255.187C725.643 255.398 723.155 255.539 721.592 255.539C715.337 255.539 712.494 252.648 712.494 246.23V205.327H726.709V193.267H712.494V175.707H697.07Z" fill="white"/>
<path d="M769.495 268.868C790.889 268.868 804.962 254.27 804.962 230.363C804.962 206.526 790.818 191.927 769.495 191.927C748.171 191.927 734.027 206.526 734.027 230.363C734.027 254.27 748.1 268.868 769.495 268.868ZM769.495 256.315C757.482 256.315 749.664 246.865 749.664 230.363C749.664 213.931 757.482 204.48 769.495 204.48C781.507 204.48 789.325 213.931 789.325 230.363C789.325 246.865 781.578 256.315 769.495 256.315Z" fill="white"/>
<path d="M816.686 267.458H832.039V223.028C832.039 212.52 838.152 205.961 848.032 205.961C851.017 205.961 853.718 206.314 854.926 206.808V192.633C853.789 192.421 851.87 192.068 849.666 192.068C840.853 192.068 834.172 197.217 831.684 205.891H831.328V193.267H816.686V267.458Z" fill="white"/>
<path d="M892.309 204.198C903.042 204.198 910.292 212.167 910.647 223.522H873.261C874.042 212.309 881.577 204.198 892.309 204.198ZM910.576 245.666C908.515 252.154 902.047 256.527 893.304 256.527C881.008 256.527 873.19 247.993 873.19 235.088V234.171H926V228.952C926 206.455 913.064 191.927 892.309 191.927C871.199 191.927 857.695 207.442 857.695 230.715C857.695 254.129 870.986 268.868 892.949 268.868C910.079 268.868 923.015 259.207 925.147 245.666H910.576Z" fill="white"/>
</svg>
